<svg width="800" height="600" viewBox="0 0 800 600" fill="none" xmlns="http://www.w3.org/2000/svg">
  <rect width="800" height="600" rx="40" fill="#F8FAFC"/>
  <rect x="220" y="230" width="360" height="220" rx="110" fill="#0F172A"/>
  <rect x="250" y="260" width="300" height="160" rx="80" fill="#1E293B"/>
  <rect x="300" y="190" width="200" height="110" rx="55" fill="#3B82F6"/>
  <rect x="290" y="310" width="220" height="70" rx="35" fill="#93C5FD"/>
  <path d="M320 215C320 185 344 160 374 160H426C456 160 480 185 480 215V240H320V215Z" fill="#2563EB"/>
  <path d="M250 285C250 245 280 215 320 215H480C520 215 550 245 550 285V320C550 360 518 392 478 392H322C282 392 250 360 250 320V285Z" fill="#1D4ED8"/>
</svg>
